<?xml version="1.0" encoding="UTF-8"?><svg xmlns="http://www.w3.org/2000/svg" viewBox="0 0 334.45 340.53"><defs><style>.d{fill:#5a5c61;}.e{opacity:.7;}.e,.f{mix-blend-mode:multiply;}.e,.f,.g,.h{fill:#bfc3c9;}.i{fill:#9ea1a6;}.j{fill:#231f20;}.k{isolation:isolate;}.h{mix-blend-mode:screen;opacity:.4;}.l{fill:#797c80;}</style></defs><g class="k"><g id="b"><g id="c"><path class="d" d="M16.67,298.07c-1.03,4.14,1.91,9.36,8.06,14.33,6.8,5.49,16.6,10.01,27.59,12.75,23.88,5.95,42.13,1.08,44.19-7.19,1.03-4.14-1.91-9.36-8.06-14.32-.88-.71-1.81-1.39-2.79-2.07-.05.2-.1.4-.15.6-.2.81-.94,4.21-2.06,9.69-.87,4.26-4.66,7.19-9.01,6.98l-1.06-.05c-5.66-.26-15.18-.7-27.97-6.02-3.39-1.41-7-3.16-10.84-5.35-2.93-1.66-4.34-5.06-3.43-8.27.98-3.48,1.99-7.05,2.95-10.49-1.23.14-2.43.31-3.58.54-7.77,1.49-12.81,4.73-13.84,8.86Z"/><path class="j" d="M88.44,303.64c6.16,4.96,9.1,10.18,8.06,14.32-2.06,8.27-20.31,13.13-44.19,7.19-10.99-2.74-20.79-7.26-27.59-12.75-6.16-4.96-9.1-10.18-8.06-14.33,1.03-4.14,6.07-7.37,13.84-8.86,1.15-.22,2.35-.4,3.58-.54.53-1.88,1.04-3.71,1.53-5.48-2.12.17-4.18.41-6.12.78-10.03,1.93-16.43,6.48-18,12.81-1.58,6.33,1.94,13.35,9.89,19.76,4.43,3.58,9.99,6.76,16.26,9.37,4.19,1.74,8.69,3.23,13.39,4.4,25.28,6.3,47.53,1.44,50.64-11.06,1.58-6.33-1.94-13.35-9.89-19.76-1.46-1.18-3.08-2.31-4.78-3.4-.44,1.83-.88,3.66-1.35,5.47.97.67,1.91,1.36,2.79,2.07Z"/><path class="j" d="M98.54,296.43c3.95,4.78,7.48,9.82,8.92,15.25,1.5,5.36.41,10.98-2.94,15.08-3.26,4.2-8.49,6.99-14.02,8.86-5.57,1.94-11.57,2.9-17.72,3.91,6.1,1.19,12.5,1.41,18.8.09,6.25-1.21,12.68-4.08,17.13-9.57,2.15-2.76,3.57-6.12,4.09-9.58.39-3.48-.05-7.05-1.4-10.14-2.59-6.26-7.5-10.81-12.86-13.91Z"/><path class="j" d="M5.76,295.02c1.1-3.99,4.02-7.4,7.86-9.92,3.84-2.57,8.44-4.3,13.19-6.08-5.05-.39-10.3.21-15.19,2.45-4.84,2.14-9.44,6.4-10.99,12.11-.78,2.8-.84,5.8-.18,8.57.68,2.75,1.82,5.31,3.41,7.49,3.1,4.39,7.31,7.6,11.89,9.77-3.23-3.92-6.29-7.75-8.32-11.9-2.02-4.13-2.82-8.51-1.67-12.49Z"/><path class="i" d="M181.58,140.83c-14.1,15.32-34.25,22.92-53.74,30.27-8.1,3.05-15.75,5.94-23.01,9.35l-.52.24c-17.33,8.12-33.71,15.79-42.3,32.16-5.9,11.43-8.94,24.49-11.89,37.13-1.36,5.83-2.76,11.87-4.43,17.68-.63,2.15-6.27,19.27-10.7,32.57-.29.86.1,1.79.93,2.28,7.05,4.11,13.3,6.76,18.77,8.51,2.02-5.56,4.28-10.95,6.6-16.32,2.54-5.86,5.17-11.67,7.87-17.45-1.8,6.09-3.52,12.19-5.15,18.31-1.49,5.64-2.91,11.32-4.04,16.95,2.42.59,4.65,1,6.7,1.31.62-1.77,1.23-3.56,1.82-5.36.85-2.81,1.73-5.6,2.66-8.37,11.37-36.83,20.37-76.46,63.15-99.46,13.79-7.41,36.91-13.19,51.39-19.26,11.99-5.04,17.36-10.23,18.99-18.65-9.52,5.15-19.4,9.64-29.34,13.8,10.23-5.31,20.32-11,29.8-17.36.38-5.16-.26-11.42-1.44-19.31-.3-1.89-2.93-10.7-3.92-16.58-.25-.23-.48-.46-.73-.69-5.31,5.05-10.32,10.46-15.18,15.75l-2.3,2.51Z"/><path class="i" d="M204.29,161.95c7.66-5.41,14.94-11.27,21.58-17.75-10.48-6.11-19.45-13.26-27.03-20.62,1,6.29,3.68,15.7,3.98,17.73,1.2,8.44,1.85,15.13,1.46,20.65Z"/><path class="f" d="M204.29,161.95c7.66-5.41,14.94-11.27,21.58-17.75-10.48-6.11-19.45-13.26-27.03-20.62,1,6.29,3.68,15.7,3.98,17.73,1.2,8.44,1.85,15.13,1.46,20.65Z"/><path class="i" d="M185.7,181.36c-14.48,6.08-37.6,11.85-51.39,19.26-42.78,23-51.78,62.63-63.15,99.46.74-2.22,1.49-4.44,2.26-6.66,2.62-7.53,5.37-15,8.22-22.43-1.94,7.69-3.76,15.41-5.44,23.14-1.46,6.77-2.84,13.57-3.85,20.33.88.07,1.72.14,2.49.2l1.16.09c1.83.14,3.48-.98,3.9-2.68,1.24-4.93,2.29-8.99,2.62-10.11,1.33-4.35,2.55-8.73,3.78-13.11,3.41-12.22,6.94-24.86,12.75-36.62,8.69-17.6,19.86-29.39,35.14-37.11,8.72-3.94,17.37-7.65,25.74-11.24,33.65-14.43,65.77-28.2,89.59-51.24-1.9-.62-3.76-1.28-5.58-1.96-12.05,10.25-25.7,18.43-39.8,25.41-14.66,7.25-29.83,13.33-44.99,19.35,14.77-6.85,29.54-13.76,43.59-21.73,12.81-7.27,25-15.52,35.57-25.28-.11-.05-.23-.09-.35-.14-2.24-.97-4.41-2-6.53-3.06-8.37,6.7-17.38,12.43-26.75,17.5-1.63,8.42-7,13.61-18.99,18.65Z"/><path class="f" d="M185.7,181.36c-14.48,6.08-37.6,11.85-51.39,19.26-42.78,23-51.78,62.63-63.15,99.46.74-2.22,1.49-4.44,2.26-6.66,2.62-7.53,5.37-15,8.22-22.43-1.94,7.69-3.76,15.41-5.44,23.14-1.46,6.77-2.84,13.57-3.85,20.33.88.07,1.72.14,2.49.2l1.16.09c1.83.14,3.48-.98,3.9-2.68,1.24-4.93,2.29-8.99,2.62-10.11,1.33-4.35,2.55-8.73,3.78-13.11,3.41-12.22,6.94-24.86,12.75-36.62,8.69-17.6,19.86-29.39,35.14-37.11,8.72-3.94,17.37-7.65,25.74-11.24,33.65-14.43,65.77-28.2,89.59-51.24-1.9-.62-3.76-1.28-5.58-1.96-12.05,10.25-25.7,18.43-39.8,25.41-14.66,7.25-29.83,13.33-44.99,19.35,14.77-6.85,29.54-13.76,43.59-21.73,12.81-7.27,25-15.52,35.57-25.28-.11-.05-.23-.09-.35-.14-2.24-.97-4.41-2-6.53-3.06-8.37,6.7-17.38,12.43-26.75,17.5-1.63,8.42-7,13.61-18.99,18.65Z"/><path class="j" d="M159.95,203.86c-8.37,3.59-17.02,7.3-25.74,11.24-15.28,7.72-26.45,19.51-35.14,37.11-5.81,11.76-9.34,24.4-12.75,36.62-1.22,4.38-2.45,8.76-3.78,13.11-.33,1.12-1.38,5.18-2.62,10.11-.42,1.7-2.07,2.82-3.9,2.68l-1.16-.09c-.77-.06-1.61-.12-2.49-.2-.14.95-.3,1.91-.43,2.86l-5.66-.96c.22-.84.46-1.67.69-2.5-.09-.01-.18-.03-.27-.04-2.05-.3-4.28-.72-6.7-1.31-.09.47-.2.94-.29,1.41l-5.57-1.34c.18-.52.38-1.03.57-1.55-5.47-1.75-11.72-4.4-18.77-8.51-.83-.49-1.22-1.42-.93-2.28,4.43-13.29,10.07-30.41,10.7-32.57,1.67-5.82,3.08-11.85,4.43-17.68,2.94-12.63,5.98-25.7,11.89-37.13,8.6-16.38,24.97-24.04,42.3-32.16l.52-.24c7.26-3.41,14.91-6.3,23.01-9.35,19.48-7.35,39.63-14.94,53.74-30.27l2.3-2.51c4.86-5.29,9.87-10.71,15.18-15.75-1.39-1.3-2.72-2.6-4.01-3.91-5.45,5.18-10.56,10.69-15.49,16.07l-2.3,2.5c-13.19,14.33-32.68,21.68-51.53,28.79-7.85,2.96-15.97,6.02-23.43,9.53l-.51.24c-17.42,8.16-35.44,16.6-44.91,34.64-6.21,12.03-9.33,25.42-12.34,38.37-1.34,5.77-2.73,11.74-4.36,17.42-.34,1.16-2.51,7.8-5.26,16.13-.59,1.79-1.21,3.66-1.84,5.57-1.16,3.49-2.36,7.12-3.54,10.66-1.09,3.26.32,6.79,3.41,8.59,4.06,2.37,7.9,4.28,11.51,5.84,13.61,5.88,23.86,6.64,29.96,7.09l1.14.09c4.68.36,8.87-2.52,9.96-6.86,1.4-5.59,2.31-9.05,2.56-9.88.06-.2.12-.41.18-.61.56-1.85,1.11-3.71,1.64-5.57.67-2.34,1.33-4.68,1.98-7.03,3.35-11.99,6.81-24.38,12.4-35.7,8.14-16.48,18.51-27.47,32.52-34.56,8.55-3.86,17.18-7.56,25.52-11.14,35.16-15.07,68.67-29.44,93.38-54.4-2.09-.57-4.15-1.18-6.15-1.83-23.82,23.04-55.93,36.82-89.59,51.24Z"/><path class="j" d="M128.38,209.04c19.85-7.2,39.7-14.47,58.94-23.28,18.51-8.48,36.48-18.53,52.49-31.31-2.44-1-4.84-2.04-7.18-3.12-14.07,12.2-30.17,22.39-47.02,31.3-18.49,9.77-37.86,18.13-57.23,26.41Z"/><path class="j" d="M149.67,192.54c13.28-5.22,26.5-10.91,39.28-17.53,12.58-6.52,24.73-13.97,36.09-22.79-2.22-1.28-4.4-2.59-6.52-3.94-8.91,8.04-18.61,15.24-28.78,21.83-12.8,8.29-26.35,15.63-40.08,22.43Z"/><path class="l" d="M98.81,80.92c36.85,64.36,109.79,94.18,186.53,98.48,1.28-.3,2.55-.64,3.8-1.01,2.39-2.58,4.5-5.29,6.27-7.98-6.26,1.18-12.56,1.65-18.76,1.58-8.93-.11-17.67-1.29-26.15-3.14,8.71.76,17.49.82,26.09-.16,8.17-.93,16.18-2.83,23.52-5.92l9.99-16.42c-20.98,12.61-51.15,14.46-85.91,4.75-7.49-2.09-15.04-4.71-22.5-7.79-44.85-18.51-86.59-53.73-93.99-92.08l-8.3,27.51c-.22.73-.41,1.45-.59,2.18Z"/><path class="l" d="M98.81,80.92c-3.55,14-.63,28.03,8.74,41.72,19.99,30.19,66.56,79.46,154.11,70.55.03,0,.07,0,.1,0,6.92-.52,13.28-3.31,18.82-7.22-2.24.17-4.47.28-6.69.31-6.3.07-12.54-.38-18.67-1.24-12.25-1.73-24.13-5.06-35-10.11,11.37,4.03,23.4,6.21,35.47,6.81,6.04.29,12.1.18,18.07-.43,3.92-.4,7.81-1.03,11.58-1.92-76.74-4.3-149.68-34.13-186.53-98.48Z"/><path class="f" d="M98.81,80.92c-3.55,14-.63,28.03,8.74,41.72,19.99,30.19,66.56,79.46,154.11,70.55.03,0,.07,0,.1,0,6.92-.52,13.28-3.31,18.82-7.22-2.24.17-4.47.28-6.69.31-6.3.07-12.54-.38-18.67-1.24-12.25-1.73-24.13-5.06-35-10.11,11.37,4.03,23.4,6.21,35.47,6.81,6.04.29,12.1.18,18.07-.43,3.92-.4,7.81-1.03,11.58-1.92-76.74-4.3-149.68-34.13-186.53-98.48Z"/><path class="j" d="M310.11,146.35l-9.99,16.42c.38-.16.77-.31,1.15-.48l2.35,6.16c-2.72.81-5.46,1.45-8.2,1.97-1.77,2.69-3.88,5.4-6.27,7.98.66-.19,1.34-.37,1.99-.58l1.83,6.28c3.87-3.92,7.14-8.17,9.64-12.29l23.61-38.8c.22-.37.36-.77.43-1.17-.51.65-1.05,1.3-1.61,1.93-4.24,4.97-9.25,9.17-14.93,12.58Z"/><path class="j" d="M261.75,193.19s-.06,0-.1,0c-87.55,8.91-134.11-40.36-154.11-70.55-9.36-13.7-12.29-27.72-8.74-41.72.18-.73.37-1.45.59-2.18l8.3-27.51c-.58-2.98-.97-5.98-1.11-8.99-.44-5.11-.16-9.79.81-14.02l-14.76,48.94c-5.02,16.63-2.01,33.19,8.92,49.17,5.43,8.2,12.78,17.76,22.26,27.25,1.55,1.56,3.16,3.11,4.83,4.65.3.27.58.55.88.82,8.98,8.18,19.64,16.09,32.15,22.79,2,1.07,4.06,2.11,6.16,3.12,2.58,1.24,5.21,2.44,7.94,3.57.14.06.28.11.42.17,2.23.91,4.52,1.78,6.85,2.61,2.22.79,4.49,1.55,6.8,2.26,2.45.75,4.95,1.44,7.5,2.08,18.69,4.73,40.17,6.65,64.77,4.16,12.19-.93,22.81-7.56,30.8-15.63-4.14.96-8.25,1.51-12.34,1.81-5.54,3.91-11.9,6.7-18.82,7.22Z"/><path class="g" d="M241.78,26.46c-1.8-.81-3.68-1.63-5.63-2.43C202.84,10.28,148.4-1.52,125.01,13.86c-.22.15-.43.3-.64.45-1.89,4.82-2.69,10.59-2.1,17.49,3.23,67.03,123.34,131.24,187.99,106.51,3.48-2.5,6.62-5.36,9.38-8.6.92-1.05,1.72-2.06,2.46-3.08,0,0,0,0,0-.01,5.22-7.25,6.58-15.19,4.16-24.28-7.86-29.49-54.13-62.12-84.47-75.88ZM284.99,98.24c-.31,2.03-1.23,3.86-2.9,5.41-12.35,11.5-31.89-8.71-41.38-16.32-15.45-12.4-35.61-6.66-51.08-17.35-8.25-5.71-22.44-18.2-17.11-28.01,9.16-16.88,49.22-6.5,63.61,1.91,11.57,6.77,51.4,37.56,48.86,54.36Z"/><path class="g" d="M122.26,31.8c-.59-6.9.21-12.66,2.1-17.49-8.29,5.78-11.82,14.7-10.74,27.27,2.19,45.49,59.07,88.14,112.81,103.16,34.92,9.76,64.63,7.33,83.82-6.43-64.65,24.73-184.76-39.48-187.99-106.51Z"/><path class="e" d="M122.26,31.8c-.59-6.9.21-12.66,2.1-17.49-8.29,5.78-11.82,14.7-10.74,27.27,2.19,45.49,59.07,88.14,112.81,103.16,34.92,9.76,64.63,7.33,83.82-6.43-64.65,24.73-184.76-39.48-187.99-106.51Z"/><path class="j" d="M245.02,20.48c-27.46-12.47-93.87-31.76-123.91-12-7.25,4.77-11.82,11.39-13.72,19.73-.96,4.24-1.24,8.91-.81,14.02.14,3.01.54,6.01,1.11,8.99,7.4,38.35,49.15,73.57,93.99,92.08,7.46,3.08,15.01,5.7,22.5,7.79,34.76,9.72,64.93,7.86,85.91-4.75,5.68-3.41,10.69-7.61,14.93-12.58.56-.64,1.09-1.28,1.61-1.93.43-.55.85-1.1,1.25-1.65,6.35-8.82,8.1-18.8,5.2-29.67-9.19-34.48-63.3-68.81-88.07-80.03ZM322.1,126.62s0,0,0,.01c-.73,1.02-1.54,2.03-2.46,3.08-2.76,3.24-5.9,6.11-9.38,8.6-19.2,13.77-48.9,16.2-83.82,6.43-53.73-15.02-110.61-57.67-112.81-103.16-1.07-12.57,2.45-21.49,10.74-27.27.22-.15.42-.31.64-.45,23.39-15.38,77.83-3.58,111.14,10.17,1.95.81,3.83,1.62,5.63,2.43,30.34,13.75,76.61,46.38,84.47,75.88,2.42,9.09,1.06,17.03-4.16,24.28Z"/><path class="j" d="M276.6,168.69c-8.61.98-17.38.92-26.09.16,8.48,1.85,17.22,3.03,26.15,3.14,6.2.07,12.5-.4,18.76-1.58,2.75-.52,5.49-1.16,8.2-1.97l-2.35-6.16c-.38.17-.77.32-1.15.48-7.34,3.09-15.35,4.99-23.52,5.92Z"/><path class="j" d="M289.14,178.4c-1.25.37-2.51.7-3.8,1.01-3.77.88-7.66,1.52-11.58,1.92-5.98.6-12.04.72-18.07.43-12.07-.6-24.1-2.79-35.47-6.81,10.87,5.04,22.75,8.38,35,10.11,6.13.86,12.36,1.3,18.67,1.24,2.22-.03,4.45-.15,6.69-.31,4.09-.31,8.21-.85,12.34-1.81.02,0,.04,0,.07-.01v-.04s-1.84-6.28-1.84-6.28c-.65.21-1.33.39-1.99.58Z"/><path class="g" d="M172.52,41.97c-5.32,9.81,8.86,22.3,17.11,28.01,15.47,10.69,35.63,4.95,51.08,17.35,9.48,7.61,29.03,27.83,41.38,16.32,1.67-1.55,2.59-3.38,2.9-5.41,2.54-16.8-37.29-47.6-48.86-54.36-14.39-8.41-54.46-18.79-63.61-1.91Z"/><path class="h" d="M172.52,41.97c-5.32,9.81,8.86,22.3,17.11,28.01,15.47,10.69,35.63,4.95,51.08,17.35,9.48,7.61,29.03,27.83,41.38,16.32,1.67-1.55,2.59-3.38,2.9-5.41,2.54-16.8-37.29-47.6-48.86-54.36-14.39-8.41-54.46-18.79-63.61-1.91Z"/><path class="j" d="M81.64,270.99c-2.85,7.43-5.6,14.9-8.22,22.43-.77,2.22-1.52,4.44-2.26,6.66-.92,2.77-1.81,5.56-2.66,8.37-.54,1.79-1.05,3.59-1.55,5.4-.23.83-.47,1.66-.69,2.5l5.66.96c.13-.95.28-1.91.43-2.86,1.01-6.75,2.39-13.56,3.85-20.33,1.68-7.73,3.51-15.44,5.44-23.14Z"/><path class="j" d="M69.17,277.24c-2.7,5.78-5.33,11.59-7.87,17.45-2.32,5.37-4.57,10.76-6.6,16.32-.19.52-.39,1.03-.57,1.55l5.57,1.34c.09-.47.2-.94.29-1.41,1.13-5.63,2.55-11.31,4.04-16.95,1.62-6.12,3.35-12.22,5.15-18.31Z"/></g></g></g></svg>