<?xml version="1.0" encoding="UTF-8" standalone="no"?>
<!-- Created with Inkscape (http://www.inkscape.org/) -->

<svg
   version="1.1"
   id="svg1"
   width="4637.6533"
   height="4472.0801"
   viewBox="0 0 4637.6533 4472.0801"
   sodipodi:docname="vecteezy_hammer-a-vibrant-and-playful-tool_53929236.eps"
   xmlns:inkscape="http://www.inkscape.org/namespaces/inkscape"
   xmlns:sodipodi="http://sodipodi.sourceforge.net/DTD/sodipodi-0.dtd"
   xmlns="http://www.w3.org/2000/svg"
   xmlns:svg="http://www.w3.org/2000/svg">
  <defs
     id="defs1">
    <linearGradient
       x1="0"
       y1="0"
       x2="1"
       y2="0"
       gradientUnits="userSpaceOnUse"
       gradientTransform="matrix(-690.771,2100.9,-2100.9,-690.771,16914.3,30804.8)"
       spreadMethod="pad"
       id="linearGradient10">
      <stop
         style="stop-opacity:1;stop-color:#ba9b95"
         offset="0"
         id="stop9" />
      <stop
         style="stop-opacity:1;stop-color:#e7e4e5"
         offset="1"
         id="stop10" />
    </linearGradient>
    <clipPath
       clipPathUnits="userSpaceOnUse"
       id="clipPath10">
      <path
         d="m 15431.4,32662.3 c 283.2,107.1 597.6,177.6 893.5,241.1 155.9,35 312.5,66 469.9,93.1 157.4,27.1 315.3,50.2 473.9,69.3 158.5,19.1 317.5,34.3 476.8,45.4 159.3,11.1 318.8,18.2 478.5,21.2 159.7,3.1 319.3,2.2 479,-2.8 159.6,-5 319,-14 478.2,-27 159.1,-13 317.9,-30 476.2,-51 158.3,-21 316,-46 473.1,-75 325.8,-62 647,-163.3 966.2,-253.1 -2781.5,209.5 -5467.5,-1235 -7513.7,-3001.9 -53.6,-46.2 -105.6,-94 -156.1,-143.5 -326.6,353.4 -687.4,686.1 -1000.6,1049.7 -136.9,139.9 -272.3,281.2 -406.3,423.9 110.1,73.1 219,144.7 335.8,206.8 70.3,82.2 250,161.7 347.4,218.2 328.5,193.6 665.4,371.1 1010.9,532.5 345.4,161.4 697.7,306 1056.9,433.8 216.3,78.9 436.6,164.7 660.4,219.3 z"
         id="path10" />
    </clipPath>
  </defs>
  <sodipodi:namedview
     id="namedview1"
     pagecolor="#ffffff"
     bordercolor="#000000"
     borderopacity="0.25"
     inkscape:showpageshadow="2"
     inkscape:pageopacity="0.0"
     inkscape:pagecheckerboard="0"
     inkscape:deskcolor="#d1d1d1">
    <inkscape:page
       x="0"
       y="0"
       inkscape:label="1"
       id="page1"
       width="4637.6533"
       height="4472.0801"
       margin="0"
       bleed="0" />
  </sodipodi:namedview>
  <g
     id="g1"
     inkscape:groupmode="layer"
     inkscape:label="1">
    <g
       id="group-R5">
      <path
         id="path2"
         d="m 18125.2,33532.2 c 1007.4,43.7 2121.1,-82.1 3077.1,-411.3 253.9,-87.4 492.3,-220.1 742.2,-318.9 193.3,-76.3 447.3,-94.9 620.8,-204.9 57,-36.1 101.4,-85.8 109.2,-155.9 8.5,-76.6 -26.4,-129.9 -85.1,-173.7 -106.5,-79.4 -805.4,-326.6 -991.6,-402.5 -1473.7,-600.5 -3402.4,-1362.2 -4659.7,-2333.9 -645.5,-498.8 -1229.7,-1127.1 -1733.8,-1765.7 212.2,-203.4 1139.3,-1072.9 1176.7,-1300.8 13.5,-81.9 -74.3,-197.5 -122.9,-255.9 -129.2,-155.6 -293.1,-294.4 -438.7,-436 -449.7,-437.1 -925.1,-849.2 -1356,-1305.1 l 14588.7,-14808 c 1422,-1459.3 2866.6,-2895 4273.9,-4368.9 328.4,-343.9 685.3,-668.2 1003.1,-1020.3 306.2,-339.1 476.7,-838.2 450.7,-1293.3 -14.6,-254.2 -87.4,-546.6 -214,-767.9 -230.1,-402.3 -644.3,-736.5 -972.6,-1059.6 C 33352,912.203 33114.6,662.902 32860.7,439.203 32488.2,111 32023,-29.0977 31529.7,5 c -456.3,31.6016 -873.9,237.703 -1224.1,524.902 -208.3,170.899 -380.1,386.7 -556,589.598 -351.1,405.2 -685.4,822.9 -1033.3,1230.3 l -3683.9,4300.1 c -977.6,1181.8 -2012.8,2317.7 -3007.6,3485.2 l -6882,8110.4 c -715.1,849.8 -1441.1,1690.3 -2177.9,2521.3 -342.7,391.6 -722.7,756.4 -1031,1175.9 -225.7,-226 -465.5,-440.4 -685.8,-671.7 -91.7,-96.3 -171,-203.6 -259.1,-303 -58.6,-66.2 -120.8,-140.9 -209.3,-164.3 -240,-63.6 -554.4,144.9 -783.11,213.1 -179.71,53.6 -365.28,78.3 -552.69,65.7 -686.39,-46.2 -1139.33,-582.5 -1561.93,-1064.9 92.91,-122.8 176.72,-246.3 230.85,-391.4 128.77,-345.3 25.35,-724.1 -124.84,-1045 -45.19,-97.7 -96.06,-192.3 -152.6,-283.9 -56.56,-91.6 -118.38,-179.4 -185.45,-263.6 -122.92,-151.5 -275,-283.2 -413.57,-420.3 -212.8,-210.4 -421.6,-425.3 -631.07,-639.1 -247.66,-252.8 -480.99,-554.5 -749.81,-782.1 -119.85,-101.5 -248.58,-177.6 -396.99,-230.4 -386.79,-137.6 -791.48,-65.6 -1153.43,109.8 -170.88,82.8 -336.24,190.7 -475.88,319.6 -289.88,267.6 -554.29,573.4 -829.07,857.5 -706.91,728.8 -1401.94,1468.7 -2085.079,2219.8 -204.816,223.4 -469.449,398.3 -661.652,626.2 -74.621,88.5 -126.297,199.2 -163.0352,308.5 -145.3438,432.7 -114.9141,982.8 88.3632,1392.3 27.602,55 58.324,108.3 92.164,159.8 33.844,51.4 70.57,100.7 110.184,147.9 350.722,419.6 777.805,803.4 1167.325,1187.9 240.92,237.7 472.54,507.2 740.03,713.8 32.98,25.3 66.98,49.2 101.98,71.7 34.98,22.4 70.85,43.4 107.6,62.8 36.76,19.5 74.26,37.3 112.52,53.6 38.27,16.3 77.14,31 116.64,44 438.06,144.9 795.72,44.2 1195.27,-153.8 369.95,159 727.5,313.3 1063.22,540.4 416.05,281.4 704.88,599.4 797.06,1105.6 58.83,322.9 -7.15,677.6 -195.49,947 230.64,159.4 435.15,371.5 635.88,566.5 l 791.99,776.6 2556.4,2540 c 480.52,479.1 949.42,985.8 1463.32,1429 232,-218.8 453.2,-450.5 677.8,-676.9 153.9,83.2 301.9,194 448.6,289.9 237.6,156.2 480.3,303.7 728.3,442.7 1643.3,913 3356,1417.8 5235.7,1488.2"
         style="fill:#11100e;fill-opacity:1;fill-rule:nonzero;stroke:none"
         transform="matrix(0.13333333,0,0,-0.13333333,0,4472.08)" />
      <path
         id="path3"
         d="m 832.449,21971.6 c 275.651,303.5 583.761,577.4 874.621,866.1 283.86,281.7 555.88,584.8 854.56,850.4 227.46,202.2 517.26,249.4 812.13,230.8 211.65,-13.4 397.14,-52.1 542.48,-216.2 -9.73,-6.3 -19.35,-12.8 -29.16,-19 -98.83,-62.8 -224.52,-103.1 -332.35,-149.3 -227.23,-97.4 -445.5,-200.5 -648.64,-342.9 -363.62,-255 -664.49,-555.6 -999.46,-842.2 -171.45,-146.7 -368,-273.6 -551.45,-405.3 -94.59,-67.9 -186.26,-148.5 -283.68,-210.7 l -239.051,238.3"
         style="fill:#ffffff;fill-opacity:1;fill-rule:nonzero;stroke:none"
         transform="matrix(0.13333333,0,0,-0.13333333,0,4472.08)" />
      <path
         id="path4"
         d="m 3599.73,18870.9 c 215.64,-182 408.24,-405.8 601.28,-611.9 350.07,-373.8 695.12,-753.7 1054.11,-1118.9 158.89,-161.7 324.03,-346.4 507.52,-479.5 -203.99,-198.2 -378.23,-382.5 -686.5,-379.4 -726.09,7.6 -1556.15,938.7 -2023.82,1436.6 -66.68,69.7 -131.06,141.4 -193.15,215.2 256.02,310.5 459.97,642.9 740.56,937.9"
         style="fill:#292c48;fill-opacity:1;fill-rule:nonzero;stroke:none"
         transform="matrix(0.13333333,0,0,-0.13333333,0,4472.08)" />
      <path
         id="path5"
         d="m 651.48,21816.1 c 83.125,-63.4 156.188,-139.3 231.141,-212 914.939,-901.9 1820.649,-1812.9 2717.109,-2733.2 -280.59,-295 -484.54,-627.4 -740.56,-937.9 -540.64,631.9 -1109.82,1246.3 -1677.25,1854.3 -206.451,221.2 -475.842,418.1 -648.525,665.3 -143.192,205 -164.93,548.8 -125.008,790.3 29.093,214.7 127.414,394 243.093,573.2"
         style="fill:#3e4f82;fill-opacity:1;fill-rule:nonzero;stroke:none"
         transform="matrix(0.13333333,0,0,-0.13333333,0,4472.08)" />
      <path
         id="path6"
         d="m 651.48,21816.1 c 83.125,-63.4 156.188,-139.3 231.141,-212 -153.172,-258.2 -361.379,-459.5 -468.336,-747.8 -1.023,128.7 0.481,258.1 -5.898,386.6 29.093,214.7 127.414,394 243.093,573.2"
         style="fill:#9b92a1;fill-opacity:1;fill-rule:nonzero;stroke:none"
         transform="matrix(0.13333333,0,0,-0.13333333,0,4472.08)" />
      <path
         id="path7"
         d="m 14148,24177.8 c 382.6,-362.3 744.9,-742.2 1106.9,-1124.6 -448.3,-425.6 -882.4,-867.6 -1319.5,-1304.6 -204.5,-204.5 -509.2,-456.7 -660.2,-695 l -1064.6,1180.3 c 641.2,652.5 1287,1300.5 1937.4,1943.9"
         style="fill:#b55c33;fill-opacity:1;fill-rule:nonzero;stroke:none"
         transform="matrix(0.13333333,0,0,-0.13333333,0,4472.08)" />
      <path
         id="path8"
         d="m 11006.2,31447 c 363.9,-325.2 692.2,-702.7 1036.6,-1049.5 -58.3,-17.7 -72.1,-7.1 -124.9,21 -239.9,127.5 -508.5,271.2 -730.9,427.3 -402.5,-269.5 -730.8,-630.6 -1077,-966.1 -667,-652.4 -1328.06,-1310.7 -1983.19,-1975 l -978.15,-969.8 c -190.85,-188 -396.1,-370.2 -567.05,-576.4 16.39,-600.9 134.17,-1356.4 -321.44,-1835.6 -342.82,-360.7 -1255.33,-947.2 -1706.31,-1166.2 -122.23,124.5 -242.97,250.5 -362.21,377.9 621.22,225 1523.78,756.9 1841.66,1364.3 248.65,475.2 185.68,987.1 35.08,1480 277.4,210.3 519.66,471.2 766.79,715.7 l 1067.55,1052.5 1639.74,1615.7 c 493.43,481.9 1010.43,964.4 1463.73,1484.2"
         style="fill:#ffffff;fill-opacity:1;fill-rule:nonzero;stroke:none"
         transform="matrix(0.13333333,0,0,-0.13333333,0,4472.08)" />
      <path
         id="path9"
         d="m 15431.4,32662.3 c 283.2,107.1 597.6,177.6 893.5,241.1 155.9,35 312.5,66 469.9,93.1 157.4,27.1 315.3,50.2 473.9,69.3 158.5,19.1 317.5,34.3 476.8,45.4 159.3,11.1 318.8,18.2 478.5,21.2 159.7,3.1 319.3,2.2 479,-2.8 159.6,-5 319,-14 478.2,-27 159.1,-13 317.9,-30 476.2,-51 158.3,-21 316,-46 473.1,-75 325.8,-62 647,-163.3 966.2,-253.1 -2781.5,209.5 -5467.5,-1235 -7513.7,-3001.9 -53.6,-46.2 -105.6,-94 -156.1,-143.5 -326.6,353.4 -687.4,686.1 -1000.6,1049.7 -136.9,139.9 -272.3,281.2 -406.3,423.9 110.1,73.1 219,144.7 335.8,206.8 70.3,82.2 250,161.7 347.4,218.2 328.5,193.6 665.4,371.1 1010.9,532.5 345.4,161.4 697.7,306 1056.9,433.8 216.3,78.9 436.6,164.7 660.4,219.3"
         style="fill:url(#linearGradient10);fill-opacity:1;fill-rule:nonzero;stroke:none"
         transform="matrix(0.13333333,0,0,-0.13333333,0,4472.08)"
         clip-path="url(#clipPath10)" />
      <path
         id="path11"
         d="m 12020,31051.7 c 110.1,73.1 219,144.7 335.8,206.8 -1.9,-5.6 -2.9,-11.6 -5.5,-17 -14.2,-29.1 -30.9,-37.2 -55.7,-55.9 -68.7,-52 -92.9,-103.6 -105.6,-188.6 -7.3,-48.9 0.9,-93.2 34.7,-131 64.3,-71.9 149.4,-113.5 209.3,-192.7 60,34.6 116.3,72.2 172.9,112 l -6.4,53.9 28.8,-55.6 c -65.1,-54.5 -134.4,-104.5 -202,-155.8 -136.9,139.9 -272.3,281.2 -406.3,423.9"
         style="fill:#ffffff;fill-opacity:1;fill-rule:nonzero;stroke:none"
         transform="matrix(0.13333333,0,0,-0.13333333,0,4472.08)" />
      <path
         id="path12"
         d="m 15431.4,32662.3 c 283.2,107.1 597.6,177.6 893.5,241.1 155.9,35 312.5,66 469.9,93.1 157.4,27.1 315.3,50.2 473.9,69.3 158.5,19.1 317.5,34.3 476.8,45.4 159.3,11.1 318.8,18.2 478.5,21.2 159.7,3.1 319.3,2.2 479,-2.8 159.6,-5 319,-14 478.2,-27 159.1,-13 317.9,-30 476.2,-51 158.3,-21 316,-46 473.1,-75 -84.1,-37.7 -517.7,49.4 -642.4,62.7 -448.5,47.9 -1821,170.9 -2143.6,-76.5 l -158.3,-120 c -188.6,0.5 -565.9,18.4 -728.7,-50.6 -437.8,-185.7 -534.8,-144.4 -987.8,-139.1 -14.5,0.1 -25.3,4.7 -38.3,9.2"
         style="fill:#ffffff;fill-opacity:1;fill-rule:nonzero;stroke:none"
         transform="matrix(0.13333333,0,0,-0.13333333,0,4472.08)" />
      <path
         id="path13"
         d="m 5966.08,21603.4 c 321.29,-302.9 620.19,-632.7 930.3,-947.2 235.08,-238.4 636.03,-584.7 806.2,-856.7 69.16,-110.5 100.43,-274 103.02,-401.9 9.91,-492.2 -308.82,-954.7 -641.69,-1287.8 l -723.28,-716.5 c -175.24,-176.6 -350.67,-381.6 -552.11,-528.3 -240.88,185.7 -453.53,429.7 -669.88,644.7 -489.61,486.7 -980.63,979.4 -1444.71,1490.5 399.07,413.8 758.65,880.2 1125.42,1323.2 353.92,427.5 723.83,843.7 1066.73,1280"
         style="fill:#9b92a1;fill-opacity:1;fill-rule:nonzero;stroke:none"
         transform="matrix(0.13333333,0,0,-0.13333333,0,4472.08)" />
      <path
         id="path14"
         d="m 20403.9,32514.5 c 477.9,16.1 942.3,-51.6 1414.5,-110.7 -454,-167.5 -892,-373.8 -1339.7,-556.6 -1695.8,-692.4 -3374.6,-1485.8 -4689.5,-2794.6 -317,-315.6 -603.4,-663.4 -881.2,-1013.4 l 5.8,-0.9 -23.1,-3.6 c -484.7,441.4 -937.3,953.4 -1376.8,1440.3 655.9,466.2 1289.4,966.1 1964.7,1404.9 1474.4,958.2 3161.5,1567.3 4925.3,1634.6"
         style="fill:#292c48;fill-opacity:1;fill-rule:nonzero;stroke:none"
         transform="matrix(0.13333333,0,0,-0.13333333,0,4472.08)" />
      <path
         id="path15"
         d="m 3916.24,23702.7 1443.6,-1477.1 c 200.7,-205 392.77,-431.5 606.24,-622.2 -342.9,-436.3 -712.81,-852.5 -1066.73,-1280 -366.77,-443 -726.35,-909.4 -1125.42,-1323.2 l -1446.22,1477.3 c -417.36,420.8 -844.54,828.7 -1256.21,1255.8 97.42,62.2 189.09,142.8 283.68,210.7 183.45,131.7 380,258.6 551.45,405.3 334.97,286.6 635.84,587.2 999.46,842.2 203.14,142.4 421.41,245.5 648.64,342.9 107.83,46.2 233.52,86.5 332.35,149.3 9.81,6.2 19.43,12.7 29.16,19"
         style="fill:#d8d0cf;fill-opacity:1;fill-rule:nonzero;stroke:none"
         transform="matrix(0.13333333,0,0,-0.13333333,0,4472.08)" />
      <path
         id="path16"
         d="m 13976,28384 c 336.7,-319.3 658.8,-653.9 989.2,-979.7 320,-315.4 648.6,-618.2 939.8,-961.5 -1788.7,-1707 -3580.4,-3407.7 -5253.8,-5229.1 -526.2,251.8 -1178.59,366 -1740.1,164 -564.09,-202.9 -957.57,-653.7 -1337.66,-1094.9 -369.61,369.8 -749.32,734 -1103.39,1118.7 443.43,137.2 764.27,250 1163.41,496.1 1455.22,897.6 5348.54,4299.6 6123.24,5724.5 126.9,233.4 101.1,440.8 159.1,685.7 27.4,25.7 40.8,44.8 60.2,76.2"
         style="fill:#50747c;fill-opacity:1;fill-rule:nonzero;stroke:none"
         transform="matrix(0.13333333,0,0,-0.13333333,0,4472.08)" />
      <path
         id="path17"
         d="m 34325.6,3023.1 c -3.4,-184.3 -45.4,-394.3 -133.5,-557 -197.9,-365.3 -575.4,-659.3 -868.9,-949.1 -191.3,-188.9 -376.6,-384.8 -571,-570.297 C 32421.6,631.102 32077,436.602 31610,452.301 c -502.4,17.004 -908.8,274.301 -1243.6,634.299 -184.1,198 -349.9,415.1 -523.6,622.2 l -890.7,1042.9 c -444.7,519.5 -917.8,1015.8 -1346.6,1548.7 -478.8,588.3 -987.1,1150 -1478.7,1727.2 l -4080.2,4747.7 c -2903.5,3443.4 -5827.3,6869.5 -8771.3,10278.2 150.9,238.3 455.6,490.6 660.1,695.1 437.2,437 871.2,879 1319.6,1304.6 l 15703.5,-15948.3 1868.6,-1953.2 655.3,-670.3 c 235.7,-238.1 497.1,-464.6 670.7,-754.4 120.8,-201.8 176.7,-469.9 172.5,-703.9"
         style="fill:#c3763f;fill-opacity:1;fill-rule:nonzero;stroke:none"
         transform="matrix(0.13333333,0,0,-0.13333333,0,4472.08)" />
      <path
         id="path18"
         d="m 28552,4926.1 c -189.6,214.2 -2235.9,2524.1 -2255.5,2575.9 -5.2,13.6 0.7,29.1 1,43.7 23.3,42.2 34.5,64.2 78.2,86.4 112,-85 510.9,-578.4 632.9,-716.5 564.1,-638.8 1128.4,-1280.4 1701.8,-1910.8 529.2,-595.4 1061.5,-1188.1 1596.9,-1778.1 250.9,-272.8 497,-550 738,-831.6 71.3,-82.4 161.7,-159.6 224.6,-246.9 25.5,-35.4 37.3,-63.5 37.4,-107.9 -25.7,-41.1 -24,-42.3 -69.7,-57 -50.5,16.1 -81.4,36.9 -118.6,75 -77.4,79.3 -142.5,173 -215.9,256.5 l -492,549.3 c -615.2,690.2 -1228.7,1385.8 -1859.1,2062"
         style="fill:#11100e;fill-opacity:1;fill-rule:nonzero;stroke:none"
         transform="matrix(0.13333333,0,0,-0.13333333,0,4472.08)" />
      <path
         id="path19"
         d="m 11187,30845.8 c 222.4,-156.1 491,-299.8 730.9,-427.3 52.8,-28.1 66.6,-38.7 124.9,-21 l 37.5,-29.8 c 342.7,-332.3 690.8,-679.8 998.5,-1044.6 299.6,-312.3 591.1,-633.2 897.2,-939.1 -19.4,-31.4 -32.8,-50.5 -60.2,-76.2 -58,-244.9 -32.2,-452.3 -159.1,-685.7 -774.7,-1424.9 -4668.02,-4826.9 -6123.24,-5724.5 -399.14,-246.1 -719.98,-358.9 -1163.41,-496.1 -646.8,639.3 -1307.54,1279.8 -1916.19,1955.2 450.98,219 1363.49,805.5 1706.31,1166.2 455.61,479.2 337.83,1234.7 321.44,1835.6 170.95,206.2 376.2,388.4 567.05,576.4 l 978.15,969.8 c 655.13,664.3 1316.19,1322.6 1983.19,1975 346.2,335.5 674.5,696.6 1077,966.1"
         style="fill:#79a0bd;fill-opacity:1;fill-rule:nonzero;stroke:none"
         transform="matrix(0.13333333,0,0,-0.13333333,0,4472.08)" />
      <path
         id="path20"
         d="m 16190.1,19562.6 c 171.9,-83.1 1150.1,-1181.1 1380.7,-1423.8 l 6268.3,-6648.2 c 311.2,-324.6 3063.7,-3164.2 3095,-3267.4 7.9,-25.9 -21.1,-61.2 -33.8,-84.4 -41.4,8 -67.6,17.1 -101.5,43.1 -224.6,172.7 -466.2,446.5 -672.8,649.6 -588,578 -1158.3,1167.7 -1728,1763.5 l -4969.8,5275.2 c -983.2,1052.4 -1988.9,2088.3 -2921.1,3187 -70.6,83.3 -306.5,323.6 -343.7,397.9 -12.2,24.3 -11.8,30.5 -15.7,54.4 l 42.4,53.1"
         style="fill:#11100e;fill-opacity:1;fill-rule:nonzero;stroke:none"
         transform="matrix(0.13333333,0,0,-0.13333333,0,4472.08)" />
    </g>
  </g>
</svg>
