<?xml version="1.0" encoding="utf-8"?>
<!-- Generator: Adobe Illustrator 19.0.0, SVG Export Plug-In . SVG Version: 6.00 Build 0)  -->
<svg xmlns="http://www.w3.org/2000/svg" xmlns:xlink="http://www.w3.org/1999/xlink" version="1.1" id="Layer_1" x="0px" y="0px" viewBox="0 0 1400 980" style="enable-background:new 0 0 1400 980;" xml:space="preserve">
<style type="text/css">
	.st0{fill:#EDEDEE;}
	.st1{fill:#888483;}
	.st2{fill:#C6C7C9;}
	.st3{fill:#E5E5E5;}
	.st4{fill:#4E4E4E;}
	.st5{fill:#686766;}
</style>
<g>
	
	<g>
		<g>
			<g>
				<path class="st1" d="M1018.7,323.5c0-50.5,36-92.7,83.8-102c6.5-1.3,13.3-2,20.2-2c6.9,0,13.6,0.7,20.2,2      c47.8,9.4,83.8,51.5,83.8,102c0,50.5-36,92.6-83.8,102c-6.5,1.3-13.3,2-20.2,2c-6.9,0-13.7-0.7-20.2-2      C1054.7,416.2,1018.7,374,1018.7,323.5z"/>
			</g>
			<g>
				<path class="st2" d="M1018.7,323.5c0-50.5,36-92.7,83.8-102c6.5-1.3,13.3-2,20.2-2l0,208c-6.9,0-13.7-0.7-20.2-2      C1054.7,416.2,1018.7,374,1018.7,323.5z"/>
			</g>
			<g>
				<path class="st3" d="M1047.7,321.7c0,47.4,31.7,87.3,74.9,99.9v6c-6.9,0-13.6-0.7-20.2-2c-47.8-9.4-83.8-51.5-83.8-102      c0-50.5,36-92.7,83.8-102c6.5-1.3,13.3-2,20.2-2v2.3C1079.4,234.3,1047.7,274.3,1047.7,321.7z"/>
			</g>
			<g>
				<path class="st4" d="M1122.7,435c-7.3,0-14.6-0.7-21.6-2.1c-52.1-10.2-89.9-56.2-89.9-109.4c0-53.2,37.8-99.2,89.9-109.4      c14.1-2.8,29.1-2.8,43.2,0c52.1,10.2,89.9,56.2,89.9,109.4c0,53.2-37.8,99.2-89.9,109.4C1137.2,434.3,1130,435,1122.7,435z       M1122.7,227c-6.3,0-12.6,0.6-18.7,1.8c-45.1,8.9-77.8,48.7-77.8,94.7c0,46,32.7,85.8,77.8,94.7c12.2,2.4,25.2,2.4,37.4,0      c45.1-8.9,77.8-48.7,77.8-94.7c0-46-32.7-85.8-77.8-94.7C1135.3,227.6,1129,227,1122.7,227z"/>
			</g>
			<g>
				<g>
					<path class="st2" d="M1205.1,277.7h-55l-27.5-47.6v34l17.7,30.6h35.3l-17.7,30.6l17.7,30.6h-35.3l-17.7,30.6v34l27.5-47.6h55       l-27.5-47.6L1205.1,277.7z"/>
				</g>
			</g>
			<g>
				<polygon class="st1" points="1122.7,264.1 1140.3,294.7 1175.7,294.7 1158,325.3 1175.7,356 1140.3,356 1122.7,386.6 1105,356       1069.7,356 1087.3,325.3 1069.7,294.7 1105,294.7     "/>
			</g>
			<g>
				<polygon class="st5" points="1119.5,325.3 1101.9,355.9 1069.7,355.9 1087.3,325.3 1069.7,294.7 1101.9,294.7     "/>
			</g>
			<g>
				<polygon class="st5" points="1137.2,355.9 1138.8,358.6 1122.7,386.5 1105,355.9     "/>
			</g>
			<g>
				<polygon class="st5" points="1137.2,294.7 1105,294.7 1122.7,264.1 1138.8,292     "/>
			</g>
			<g>
				<path class="st4" d="M1122.7,401.6l-22-38.1h-44l22-38.1l-22-38.1h44l22-38.1l22,38.1h44l-22,38.1l22,38.1h-44L1122.7,401.6z       M1082.6,348.5h26.7l13.3,23.1l13.3-23.1h26.7l-13.3-23.1l13.3-23.1H1136l-13.3-23.1l-13.3,23.1h-26.7l13.3,23.1L1082.6,348.5z"/>
			</g>
		</g>
		<g>
			<g>
				<path class="st1" d="M660.6,656.9c0,50.5-36,92.6-83.8,102c-6.5,1.3-13.3,2-20.2,2s-13.7-0.7-20.2-2      c-47.8-9.4-83.8-51.5-83.8-102c0-50.5,36-92.6,83.8-102c6.5-1.3,13.3-2,20.2-2s13.7,0.7,20.2,2      C624.5,564.3,660.6,606.4,660.6,656.9z"/>
			</g>
			<g>
				<path class="st1" d="M452.5,656.9c0-50.5,36-92.7,83.8-102c6.5-1.3,13.3-2,20.2-2c6.9,0,13.6,0.7,20.2,2      c47.8,9.4,83.8,51.5,83.8,102c0,50.5-36,92.6-83.8,102c-6.5,1.3-13.3,2-20.2,2c-6.9,0-13.7-0.7-20.2-2      C488.6,749.6,452.5,707.5,452.5,656.9z"/>
			</g>
			<g>
				<path class="st2" d="M452.5,656.9c0-50.5,36-92.7,83.8-102c6.5-1.3,13.3-2,20.2-2l0,208c-6.9,0-13.7-0.7-20.2-2      C488.6,749.6,452.5,707.5,452.5,656.9z"/>
			</g>
			<g>
				<path class="st3" d="M481.6,656c0,47.3,31.6,87.3,74.9,99.9v6c-6.9,0-13.6-0.7-20.2-2c-47.8-9.4-83.8-51.5-83.8-102      c0-50.5,36-92.6,83.8-102c6.5-1.3,13.3-2,20.2-2v2.3C513.2,568.7,481.6,608.7,481.6,656z"/>
			</g>
			<g>
				<path class="st4" d="M556.6,768.4c-7.3,0-14.6-0.7-21.6-2.1c-52.1-10.2-89.9-56.2-89.9-109.4c0-53.2,37.8-99.2,89.9-109.4      c14.1-2.8,29.1-2.8,43.2,0c52.1,10.2,89.9,56.2,89.9,109.4c0,53.2-37.8,99.2-89.9,109.4C571.1,767.7,563.8,768.4,556.6,768.4z       M556.6,560.4c-6.3,0-12.6,0.6-18.7,1.8c-45.1,8.9-77.8,48.7-77.8,94.7c0,46,32.7,85.8,77.8,94.7c12.2,2.4,25.2,2.4,37.4,0      c45.1-8.9,77.8-48.7,77.8-94.7c0-46-32.7-85.8-77.8-94.7C569.2,561.1,562.9,560.4,556.6,560.4z"/>
			</g>
			<g>
				<g>
					<path class="st2" d="M581.1,579.8c-2.9-0.9-5.9-1.7-8.9-2.3c-5.1-1-10.3-1.5-15.7-1.5c-5.4,0-10.6,0.5-15.7,1.5       c-2.9,0.6-5.7,1.3-8.4,2.1c-32.9,10.3-56.8,41-56.8,77.3c0,36.3,23.9,67,56.8,77.2c2.7,0.9,5.6,1.6,8.4,2.1       c5.1,1,10.3,1.5,15.7,1.5c5.4,0,10.6-0.5,15.7-1.5c3-0.6,6-1.4,8.9-2.3c32.7-10.4,56.3-41,56.3-77.1       C637.5,620.8,613.8,590.2,581.1,579.8z M575.4,716c-2.2,0.7-4.5,1.3-6.8,1.8c-3.9,0.8-7.9,1.2-12,1.2c-4.1,0-8.1-0.4-12-1.2       c-2.2-0.4-4.4-1-6.5-1.6c-25.2-7.9-43.5-31.4-43.5-59.2c0-27.8,18.3-51.3,43.5-59.2c2.1-0.7,4.3-1.2,6.5-1.6       c3.9-0.8,7.9-1.2,12-1.2c4.1,0,8.1,0.4,12,1.2c2.3,0.5,4.6,1,6.8,1.7c25,8,43.2,31.4,43.2,59.1       C618.5,684.6,600.4,708,575.4,716z"/>
				</g>
			</g>
			<g>
				<path class="st4" d="M556.6,723.9c-4.4,0-8.8-0.4-13-1.3c-31.3-6.1-54-33.8-54-65.7c0-31.9,22.7-59.6,54-65.7      c8.5-1.7,17.5-1.7,26,0c31.3,6.1,54,33.8,54,65.7c0,31.9-22.7,59.6-54,65.7C565.3,723.5,560.9,723.9,556.6,723.9z M556.6,605      c-3.4,0-6.8,0.3-10.1,1c-24.3,4.8-41.9,26.2-41.9,51s17.6,46.2,41.9,51c6.6,1.3,13.6,1.3,20.2,0c24.3-4.8,41.9-26.2,41.9-51      s-17.6-46.2-41.9-51C563.4,605.3,560,605,556.6,605z"/>
			</g>
			<g>
				<path class="st3" d="M563.1,713.7c1.8,0.6,3.7,1.1,5.6,1.4c-0.2,0.1-0.4,0.1-0.6,0.1c-3.7,0.7-7.6,1.1-11.5,1.1      c-3.9,0-7.8-0.4-11.5-1.1c-2.1-0.4-4.2-0.9-6.2-1.6c-24.2-7.6-41.7-30.1-41.7-56.8c0-26.7,17.5-49.2,41.7-56.8      c2-0.6,4.1-1.2,6.2-1.6c3.7-0.7,7.6-1.1,11.5-1.1c4,0,7.8,0.4,11.5,1.1c0.2,0,0.4,0.1,0.6,0.1c-1.9,0.4-3.8,0.9-5.6,1.4      c-24.2,7.6-41.7,30.1-41.7,56.8C521.4,683.6,538.9,706.2,563.1,713.7z"/>
			</g>
			<g>
				<path class="st5" d="M556.7,597.5v119h-0.2c-3.9,0-7.8-0.4-11.5-1.1c-2.1-0.4-4.2-0.9-6.2-1.6V600.1c2-0.6,4.1-1.2,6.2-1.6      c3.7-0.7,7.6-1.1,11.5-1.1H556.7z"/>
			</g>
			<g>
				<path class="st4" d="M556.5,723.9c-4.3,0-8.7-0.4-13-1.3c-2.5-0.5-4.8-1.1-7-1.8l-5.2-1.7V594.6l5.3-1.6c2.3-0.7,4.7-1.3,7-1.8      c8.5-1.7,17.4-1.7,25.9,0c2.5,0.5,4.9,1.1,7.3,1.9l5.2,1.7v124.4l-5.2,1.7c-2.4,0.8-4.9,1.4-7.4,1.9      C565.3,723.5,560.9,723.9,556.5,723.9z M546.3,707.9c0.1,0,0.1,0,0.2,0c6.6,1.3,13.5,1.3,20.2,0c0.2,0,0.3-0.1,0.5-0.1V606      c-0.2,0-0.3-0.1-0.5-0.1c-6.6-1.3-13.5-1.3-20.2,0c0,0-0.1,0-0.1,0V707.9z"/>
			</g>
			<g>
				<path class="st4" d="M556.5,723.9c-4.3,0-8.7-0.4-13-1.3c-2.5-0.5-4.8-1.1-7-1.8c-28.1-8.8-47-34.5-47-63.9s18.9-55.2,47-64      c2.3-0.7,4.7-1.3,7-1.8c8.5-1.7,17.4-1.7,25.9,0c2.5,0.5,4.9,1.1,7.3,1.9c27.9,8.9,46.7,34.6,46.7,63.9s-18.7,55-46.6,63.8      c-2.4,0.8-4.8,1.4-7.3,1.9C565.3,723.5,560.9,723.9,556.5,723.9z M556.5,605c-3.4,0-6.8,0.3-10.1,1c-1.8,0.4-3.6,0.8-5.4,1.4      c-21.8,6.8-36.5,26.8-36.5,49.6c0,22.9,14.7,42.8,36.5,49.6c1.7,0.5,3.5,1,5.4,1.4c6.6,1.3,13.5,1.3,20.2,0      c1.9-0.4,3.8-0.9,5.7-1.5c21.7-6.9,36.2-26.8,36.2-49.5c0-22.7-14.5-42.7-36.2-49.6c-1.9-0.6-3.8-1.1-5.7-1.5      C563.3,605.3,559.9,605,556.5,605z"/>
			</g>
		</g>
		<g>
			<g>
				<g>
					<path class="st1" d="M945.4,656.9c0,50.5-36,92.6-83.8,102c-6.5,1.3-13.3,2-20.2,2s-13.7-0.7-20.2-2       c-47.8-9.4-83.8-51.5-83.8-102c0-50.5,36-92.6,83.8-102c6.5-1.3,13.3-2,20.2-2s13.7,0.7,20.2,2       C909.3,564.3,945.4,606.4,945.4,656.9z"/>
				</g>
				<g>
					<path class="st1" d="M737.4,656.9c0-50.5,36-92.7,83.8-102c6.5-1.3,13.3-2,20.2-2s13.7,0.7,20.2,2c47.8,9.4,83.8,51.5,83.8,102       c0,50.5-36,92.6-83.8,102c-6.5,1.3-13.3,2-20.2,2c-6.9,0-13.6-0.7-20.2-2C773.4,749.6,737.4,707.5,737.4,656.9z"/>
				</g>
				<g>
					<path class="st2" d="M737.4,656.9c0-50.5,36-92.7,83.8-102c6.5-1.3,13.3-2,20.2-2l0,208c-6.9,0-13.6-0.7-20.2-2       C773.4,749.6,737.4,707.5,737.4,656.9z"/>
				</g>
				<g>
					<path class="st3" d="M766.4,656c0,47.3,31.7,87.3,75,99.9v6c-6.9,0-13.7-0.7-20.2-2c-47.8-9.4-83.8-51.5-83.8-102       c0-50.5,36-92.6,83.8-102c6.5-1.3,13.3-2,20.2-2v2.3C798.1,568.7,766.4,608.7,766.4,656z"/>
				</g>
				<g>
					<path class="st4" d="M841.4,768.4c-7.3,0-14.6-0.7-21.6-2.1c-52.1-10.2-89.9-56.2-89.9-109.4c0-53.2,37.8-99.2,89.9-109.4       c14.1-2.8,29.1-2.8,43.2,0c52.1,10.2,89.9,56.2,89.9,109.4c0,53.2-37.8,99.2-89.9,109.4C855.9,767.7,848.7,768.4,841.4,768.4z        M841.4,560.4c-6.3,0-12.6,0.6-18.7,1.8c-45.1,8.9-77.8,48.7-77.8,94.7c0,46,32.7,85.8,77.8,94.7c12.2,2.4,25.2,2.4,37.4,0       c45.1-8.9,77.8-48.7,77.8-94.7c0-46-32.7-85.8-77.8-94.7C854,561.1,847.7,560.4,841.4,560.4z"/>
				</g>
			</g>
			<g>
				<g>
					<path class="st2" d="M875.6,620.8v-43.2h-68.5v43.2h-29.5v68.5h29.5v43.2h68.5v-43.2h43.2v-68.5H875.6z M902.7,672.3h-44.2       v44.2h-34.5v-44.2h-44.2l0-34.5h44.2v-44.2h34.5v44.2h44.2V672.3z"/>
				</g>
			</g>
			<g>
				<polygon class="st5" points="841.4,593.6 841.4,716.4 824.1,716.4 824.1,672.3 779.9,672.3 779.9,637.8 824.1,637.8       824.1,593.6     "/>
			</g>
			<g>
				<polygon class="st5" points="841.4,599.8 841.4,710.3 825.8,710.3 825.8,670.5 786.1,670.5 786.1,639.5 825.8,639.5       825.8,599.8     "/>
			</g>
			<g>
				<path class="st4" d="M864.3,717.8h-46V678h-39.7v-46h39.7v-39.7h46V632H904v46h-39.7V717.8z M833.3,702.8h16V663H889v-16h-39.7      v-39.7h-16V647h-39.7v16h39.7V702.8z"/>
			</g>
		</g>
		<g>
			<g>
				<polygon class="st1" points="951.1,322.6 896.2,417.6 841.4,417.6 841.4,227.6 896.2,227.6     "/>
			</g>
			<g>
				<polygon class="st2" points="731.7,324.4 786.5,419.4 841.4,419.4 841.4,229.4 786.5,229.4     "/>
			</g>
			<g>
				<polygon class="st3" points="764.7,324.4 819.6,419.4 786.5,419.4 731.7,324.4 786.5,229.4 819.6,229.4     "/>
			</g>
			<g>
				<g>
					<path class="st4" d="M900.5,425.1H782.2L723,322.6l59.2-102.5h118.4l59.2,102.5L900.5,425.1z M790.8,410.1h101l50.5-87.5       l-50.5-87.5h-101l-50.5,87.5L790.8,410.1z"/>
				</g>
			</g>
			<g>
				<g>
					<path class="st4" d="M900.5,425.1H782.2L723,322.6l59.2-102.5h118.4l59.2,102.5L900.5,425.1z M790.8,410.1h101l50.5-87.5       l-50.5-87.5h-101l-50.5,87.5L790.8,410.1z"/>
				</g>
			</g>
			<g>
				<rect x="841.4" y="227.6" class="st1" width="24.7" height="190"/>
			</g>
			<g>
				<rect x="816.6" y="227.6" class="st5" width="24.7" height="190"/>
			</g>
			<g>
				<rect x="866.1" y="227.6" class="st2" width="23.2" height="191.8"/>
			</g>
			<g>
				<g>
					<path class="st4" d="M900.5,425.1H782.2L723,322.6l59.2-102.5h118.4l59.2,102.5L900.5,425.1z M790.8,410.1h101l50.5-87.5       l-50.5-87.5h-101l-50.5,87.5L790.8,410.1z"/>
				</g>
			</g>
			<g>
				<path class="st4" d="M873.6,425.1h-64.5v-205h64.5V425.1z M824.1,410.1h34.5v-175h-34.5V410.1z"/>
			</g>
		</g>
		<g>
			<g>
				<polygon class="st1" points="1229.2,656.5 1174.4,751.5 1119.5,751.5 1119.5,561.5 1174.4,561.5     "/>
			</g>
			<g>
				<polygon class="st2" points="1009.8,658.3 1064.7,753.3 1119.5,753.3 1119.5,563.3 1064.7,563.3     "/>
			</g>
			<g>
				<polygon class="st3" points="1042.9,658.3 1097.8,753.3 1064.7,753.3 1009.8,658.3 1064.7,563.3 1097.8,563.3     "/>
			</g>
			<g>
				<g>
					<path class="st4" d="M1178.7,759h-118.4l-59.2-102.5l59.2-102.5h118.4l59.2,102.5L1178.7,759z M1069,744h101l50.5-87.5       L1170,569h-101l-50.5,87.5L1069,744z"/>
				</g>
			</g>
			<g>
				<g>
					<path class="st4" d="M1178.7,759h-118.4l-59.2-102.5l59.2-102.5h118.4l59.2,102.5L1178.7,759z M1069,744h101l50.5-87.5       l-50.5-87.5h-101l-50.5,87.5L1069,744z"/>
				</g>
			</g>
			<g>
				<g>
					<path class="st4" d="M1178.7,759h-118.4l-59.2-102.5l59.2-102.5h118.4l59.2,102.5L1178.7,759z M1069,744h101l50.5-87.5       l-50.5-87.5h-101l-50.5,87.5L1069,744z"/>
				</g>
			</g>
		</g>
		<g>
			<g>
				<path class="st1" d="M660.6,322.6c0,50.5-36,92.7-83.8,102c-6.5,1.3-13.3,2-20.2,2s-13.7-0.7-20.2-2      c-47.8-9.4-83.8-51.5-83.8-102c0-50.5,36-92.6,83.8-102c6.5-1.3,13.3-2,20.2-2s13.7,0.7,20.2,2      C624.5,229.9,660.6,272.1,660.6,322.6z"/>
			</g>
			<g>
				<path class="st1" d="M452.5,322.6c0-50.5,36-92.7,83.8-102c6.5-1.3,13.3-2,20.2-2c6.9,0,13.6,0.7,20.2,2      c47.8,9.4,83.8,51.5,83.8,102c0,50.5-36,92.6-83.8,102c-6.5,1.3-13.3,2-20.2,2c-6.9,0-13.7-0.7-20.2-2      C488.6,415.2,452.5,373.1,452.5,322.6z"/>
			</g>
			<g>
				<path class="st2" d="M452.5,324.4c0-50.5,36-92.6,83.8-102c6.5-1.3,13.3-2,20.2-2l0,208c-6.9,0-13.7-0.7-20.2-2      C488.6,417.1,452.5,375,452.5,324.4z"/>
			</g>
			<g>
				<polygon class="st5" points="533.5,322.6 561.4,371 528.6,371 500.6,322.6 528.6,274.2 561.4,274.2     "/>
			</g>
			<g>
				<g>
					<path class="st2" d="M597.5,251.6h-81.9l-41,70.9l41,70.9h81.9l41-70.9L597.5,251.6z M588.3,377.6h-63.5l-31.8-55l31.8-55h63.5       l31.8,55L588.3,377.6z"/>
				</g>
			</g>
			<g>
				<path class="st3" d="M481.6,322.6c0,47.4,31.6,87.3,74.9,99.9v6c-6.9,0-13.6-0.7-20.2-2c-47.8-9.4-83.8-51.5-83.8-102      c0-50.5,36-92.7,83.8-102c6.5-1.3,13.3-2,20.2-2v2.3C513.2,235.3,481.6,275.2,481.6,322.6z"/>
			</g>
			<g>
				<path class="st4" d="M556.6,434.1c-7.3,0-14.6-0.7-21.6-2.1c-52.1-10.2-89.9-56.2-89.9-109.4c0-53.2,37.8-99.2,89.9-109.4      c14.1-2.8,29.1-2.8,43.2,0c52.1,10.2,89.9,56.2,89.9,109.4c0,53.2-37.8,99.2-89.9,109.4C571.1,433.4,563.9,434.1,556.6,434.1z       M556.6,226.1c-6.3,0-12.6,0.6-18.7,1.8c-45.1,8.9-77.8,48.7-77.8,94.7c0,46,32.7,85.8,77.8,94.7c12.2,2.4,25.2,2.4,37.4,0      c45.1-8.9,77.8-48.7,77.8-94.7c0-46-32.7-85.8-77.8-94.7C569.2,226.7,562.9,226.1,556.6,226.1z"/>
			</g>
			<g>
				<polygon class="st1" points="528.6,371 500.6,322.6 528.6,274.2 584.5,274.2 612.5,322.6 584.5,371     "/>
			</g>
			<g>
				<polygon class="st5" points="531,322.6 559,371 528.6,371 500.6,322.6 528.6,274.2 559,274.2     "/>
			</g>
			<g>
				<path class="st4" d="M588.8,378.5h-64.6L492,322.6l32.3-55.9h64.6l32.3,55.9L588.8,378.5z M532.9,363.5h47.3l23.6-40.9      l-23.6-40.9h-47.3l-23.6,40.9L532.9,363.5z"/>
			</g>
		</g>
		<g>
			<g>
				<path class="st1" d="M169.6,323.5c0-50.5,36-92.6,83.8-102c6.5-1.3,13.3-2,20.2-2c6.9,0,13.7,0.7,20.2,2      c47.8,9.4,83.8,51.5,83.8,102c0,50.5-36,92.7-83.8,102c-6.5,1.3-13.3,2-20.2,2s-13.6-0.7-20.2-2      C205.6,416.2,169.6,374,169.6,323.5z"/>
			</g>
			<g>
				<path class="st2" d="M169.6,323.5c0-50.5,36-92.6,83.8-102c6.5-1.3,13.3-2,20.2-2l0,208c-6.9,0-13.6-0.7-20.2-2      C205.6,416.2,169.6,374,169.6,323.5z"/>
			</g>
			<g>
				<path class="st3" d="M198.7,321.7c0,47.3,31.6,87.3,74.9,99.9v6c-6.9,0-13.6-0.7-20.2-2c-47.8-9.4-83.8-51.5-83.8-102      c0-50.5,36-92.6,83.8-102c6.5-1.3,13.3-2,20.2-2v2.3C230.3,234.3,198.7,274.3,198.7,321.7z"/>
			</g>
			<g>
				<path class="st4" d="M273.6,435c-7.3,0-14.6-0.7-21.6-2.1c-52.1-10.2-89.9-56.2-89.9-109.4c0-53.2,37.8-99.2,89.9-109.4      c14.1-2.8,29.1-2.8,43.2,0c52.1,10.2,89.9,56.2,89.9,109.4c0,53.2-37.8,99.2-89.9,109.4C288.2,434.3,280.9,435,273.6,435z       M273.6,227c-6.3,0-12.6,0.6-18.7,1.8c-45.1,8.9-77.8,48.7-77.8,94.7c0,46,32.7,85.8,77.8,94.7c12.2,2.4,25.2,2.4,37.4,0      c45.1-8.9,77.8-48.7,77.8-94.7c0-46-32.7-85.8-77.8-94.7C286.2,227.6,279.9,227,273.6,227z"/>
			</g>
			<g>
				<path class="st1" d="M298.3,222.5v202.1c-1.5,0.4-3,0.7-4.6,1c-6.5,1.3-13.3,2-20.2,2v-208c6.9,0,13.6,0.7,20.2,2      C295.3,221.8,296.8,222.1,298.3,222.5z"/>
			</g>
			<g>
				<path class="st5" d="M273.6,219.5v208c-6.9,0-13.6-0.7-20.2-2c-1.5-0.3-3-0.6-4.6-1V222.5c1.5-0.4,3-0.7,4.6-1      C260,220.2,266.7,219.5,273.6,219.5z"/>
			</g>
			<g>
				<path class="st4" d="M273.6,435c-7.3,0-14.6-0.7-21.6-2.1c-1.6-0.3-3.2-0.7-4.9-1.1c-50-12.2-85-56.7-85-108.3      c0-51.6,35-96.1,85-108.3c1.7-0.4,3.3-0.8,4.9-1.1c14.1-2.8,29.1-2.8,43.2,0c1.6,0.3,3.2,0.7,4.9,1.1c50,12.2,85,56.7,85,108.3      c0,51.6-35,96.1-85,108.3c-1.7,0.4-3.3,0.8-4.9,1.1C288.2,434.3,280.9,435,273.6,435z M273.6,227c-6.3,0-12.6,0.6-18.7,1.8      c-1.4,0.3-2.8,0.6-4.2,0.9c-43.3,10.6-73.6,49.1-73.6,93.7c0,44.6,30.2,83.2,73.5,93.7c1.5,0.4,2.9,0.7,4.2,0.9      c12.2,2.4,25.3,2.4,37.4,0c1.4-0.3,2.8-0.6,4.2-0.9c43.3-10.6,73.6-49.1,73.6-93.7c0-44.6-30.2-83.2-73.5-93.7      c-1.5-0.4-2.9-0.7-4.2-0.9C286.2,227.6,279.9,227,273.6,227z"/>
			</g>
			<g>
				<path class="st2" d="M321.5,228.3v190.4c-5.3,2.4-10.9,4.3-16.6,5.7V222.6C310.7,224.1,316.2,226,321.5,228.3z"/>
			</g>
			<g>
				<path class="st4" d="M273.6,435c-7.3,0-14.6-0.7-21.6-2.1c-1.6-0.3-3.2-0.7-4.9-1.1c-50-12.2-85-56.7-85-108.3      c0-51.6,35-96.1,85-108.3c1.7-0.4,3.3-0.8,4.9-1.1c14.1-2.8,29.1-2.8,43.2,0c1.6,0.3,3.2,0.7,4.9,1.1c0.3,0.1,0.5,0.1,0.8,0.2      c6,1.5,12,3.6,17.7,6.1c40.4,17.8,66.5,57.9,66.5,102s-26.1,84.2-66.5,102c-5.7,2.5-11.6,4.6-17.7,6.1c-0.3,0.1-0.6,0.1-0.8,0.2      c-1.6,0.4-3.3,0.8-4.8,1.1C288.2,434.3,280.9,435,273.6,435z M273.6,227c-6.3,0-12.6,0.6-18.7,1.8c-1.4,0.3-2.8,0.6-4.2,0.9      c-43.3,10.6-73.6,49.1-73.6,93.7c0,44.6,30.2,83.2,73.5,93.7c1.5,0.4,2.9,0.7,4.2,0.9c12.2,2.4,25.2,2.4,37.4,0      c1.4-0.3,2.8-0.6,4.2-0.9l0.6-0.2c5.2-1.3,10.4-3.1,15.4-5.3c35-15.4,57.6-50.1,57.6-88.3c0-38.2-22.6-72.9-57.6-88.3      c-5-2.2-10.1-4-15.4-5.3l-0.5-0.1c-1.5-0.4-2.9-0.7-4.3-0.9C286.2,227.6,279.9,227,273.6,227z"/>
			</g>
			<g>
				<path class="st4" d="M273.6,435c-7.3,0-14.6-0.7-21.6-2.1c-1.6-0.3-3.2-0.7-4.9-1.1l-5.7-1.4V216.6l5.7-1.4      c1.7-0.4,3.3-0.8,4.9-1.1c14.1-2.8,29.1-2.8,43.2,0c1.6,0.3,3.2,0.7,4.9,1.1l5.7,1.4v213.8l-5.7,1.4c-1.7,0.4-3.3,0.8-4.9,1.1      C288.2,434.3,280.9,435,273.6,435z M256.4,418.5c11.3,2,23.2,2,34.5,0V228.5c-11.3-2-23.2-2-34.5,0V418.5z"/>
			</g>
		</g>
		<g>
			<g>
				<path class="st1" d="M169.6,657.4c0-50.5,36-92.7,83.8-102c6.5-1.3,13.3-2,20.2-2c6.9,0,13.7,0.7,20.2,2      c47.8,9.4,83.8,51.5,83.8,102c0,50.5-36,92.6-83.8,102c-6.5,1.3-13.3,2-20.2,2s-13.6-0.7-20.2-2      C205.6,750.1,169.6,707.9,169.6,657.4z"/>
			</g>
			<g>
				<path class="st2" d="M169.6,657.4c0-50.5,36-92.7,83.8-102c6.5-1.3,13.3-2,20.2-2l0,208c-6.9,0-13.6-0.7-20.2-2      C205.6,750.1,169.6,707.9,169.6,657.4z"/>
			</g>
			<g>
				<path class="st3" d="M198.7,655.6c0,47.3,31.6,87.3,74.9,99.9v6c-6.9,0-13.6-0.7-20.2-2c-47.8-9.4-83.8-51.5-83.8-102      c0-50.5,36-92.6,83.8-102c6.5-1.3,13.3-2,20.2-2v2.3C230.3,568.2,198.7,608.2,198.7,655.6z"/>
			</g>
			<g>
				<path class="st4" d="M273.6,768.9c-7.3,0-14.6-0.7-21.6-2.1c-52.1-10.2-89.9-56.2-89.9-109.4c0-53.2,37.8-99.2,89.9-109.4      c14.1-2.8,29.1-2.8,43.2,0c52.1,10.2,89.9,56.2,89.9,109.4c0,53.2-37.8,99.2-89.9,109.4C288.2,768.2,280.9,768.9,273.6,768.9z       M273.6,560.9c-6.3,0-12.6,0.6-18.7,1.8c-45.1,8.9-77.8,48.7-77.8,94.7c0,46,32.7,85.8,77.8,94.7c12.2,2.4,25.2,2.4,37.4,0      c45.1-8.9,77.8-48.7,77.8-94.7c0-46-32.7-85.8-77.8-94.7C286.2,561.5,279.9,560.9,273.6,560.9z"/>
			</g>
			<g>
				<g>
					<g>
						
							<rect x="216.1" y="539.3" transform="matrix(0.7072 0.707 -0.707 0.7072 491.7137 20.0715)" class="st2" width="11" height="128.8"/>
					</g>
				</g>
				<g>
					<g>
						
							<rect x="245.5" y="533" transform="matrix(0.7068 0.7074 -0.7074 0.7068 522.619 8.5416)" class="st2" width="11" height="203.7"/>
					</g>
				</g>
				<g>
					<g>
						
							<rect x="276.5" y="564.3" transform="matrix(0.7062 0.708 -0.708 0.7062 554.2525 -4.0142)" class="st2" width="11" height="203"/>
					</g>
				</g>
				<g>
					<g>
						<polygon class="st2" points="258.2,757 250.4,749.2 365.4,634.4 373.2,642.2       "/>
					</g>
				</g>
			</g>
			<g>
				<g>
					<g>
						
							<rect x="158" y="705.9" transform="matrix(0.7071 0.7071 -0.7071 0.7071 568.1609 51.0978)" class="st2" width="128.8" height="11"/>
					</g>
				</g>
				<g>
					<g>
						
							<rect x="150.3" y="675.3" transform="matrix(0.7075 0.7068 -0.7068 0.7075 554.9926 20.8383)" class="st2" width="204" height="11"/>
					</g>
				</g>
				<g>
					<g>
						
							<rect x="182" y="644.3" transform="matrix(0.7078 0.7064 -0.7064 0.7078 541.838 -10.2383)" class="st2" width="202.7" height="11"/>
					</g>
				</g>
				<g>
					<g>
						
							<rect x="232.5" y="614.4" transform="matrix(0.7078 0.7064 -0.7064 0.7078 529.4135 -40.0687)" class="st2" width="161.3" height="11"/>
					</g>
				</g>
			</g>
			<g>
				<g>
					
						<rect x="146.3" y="694.6" transform="matrix(0.7071 0.7071 -0.7071 0.7071 563.4903 43.7494)" class="st4" width="165.3" height="15"/>
				</g>
				<g>
					
						<rect x="157.2" y="664.3" transform="matrix(0.7075 0.7068 -0.7068 0.7075 550.6528 13.3587)" class="st4" width="204" height="15"/>
				</g>
				<g>
					
						<rect x="188.8" y="633.3" transform="matrix(0.7078 0.7064 -0.7064 0.7078 537.4992 -17.7124)" class="st4" width="202.7" height="15"/>
				</g>
				<g>
					
						<rect x="239.4" y="603.4" transform="matrix(0.7078 0.7064 -0.7064 0.7078 525.0796 -47.5411)" class="st4" width="161.3" height="15"/>
				</g>
			</g>
			<g>
				<g>
					<polygon class="st4" points="175.7,675.5 165.1,664.9 281.1,548.9 291.7,559.5      "/>
				</g>
				<g>
					
						<rect x="251.2" y="540.6" transform="matrix(0.7068 0.7074 -0.7074 0.7068 530.291 5.3839)" class="st4" width="15" height="203.7"/>
				</g>
				<g>
					<polygon class="st4" points="223.1,750.5 212.5,739.8 356.2,596.4 366.8,607      "/>
				</g>
				<g>
					<polygon class="st4" points="267.2,766.1 256.6,755.4 371.7,640.6 382.3,651.2      "/>
				</g>
			</g>
			<g>
				<path class="st4" d="M273.6,768.9c-7.3,0-14.6-0.7-21.6-2.1c-1.6-0.3-3.2-0.7-4.9-1.1c-50-12.2-85-56.7-85-108.3      c0-51.6,35-96.1,85-108.3c1.7-0.4,3.3-0.8,4.9-1.1c14.1-2.8,29.1-2.8,43.2,0c1.6,0.3,3.2,0.7,4.9,1.1c50,12.2,85,56.7,85,108.3      c0,51.6-35,96.1-85,108.3c-1.7,0.4-3.3,0.8-4.9,1.1C288.2,768.2,280.9,768.9,273.6,768.9z M273.6,560.9      c-6.3,0-12.6,0.6-18.7,1.8c-1.4,0.3-2.8,0.6-4.2,0.9c-43.3,10.6-73.6,49.1-73.6,93.7c0,44.6,30.2,83.2,73.5,93.7      c1.5,0.4,2.9,0.7,4.2,0.9c12.2,2.4,25.2,2.4,37.4,0c1.4-0.3,2.8-0.6,4.2-0.9c43.3-10.6,73.6-49.1,73.6-93.7      c0-44.6-30.2-83.2-73.5-93.7c-1.5-0.4-2.9-0.7-4.2-0.9C286.2,561.5,279.9,560.9,273.6,560.9z"/>
			</g>
		</g>
	</g>
</g>
</svg>
