<svg width="667" height="643" viewBox="0 0 667 643" fill="none" xmlns="http://www.w3.org/2000/svg">
<path d="M347.575 0.16045C366.894 -0.677314 388.25 1.73439 406.583 8.04541C411.452 9.72094 416.024 12.2649 420.816 14.159C424.523 15.6217 429.393 15.9783 432.72 18.0871C433.814 18.7791 434.665 19.7319 434.814 21.0758C434.977 22.5443 434.308 23.5661 433.183 24.4057C431.14 25.9279 417.738 30.6669 414.167 32.122C385.907 43.6341 348.922 58.2365 324.811 76.8647C312.433 86.4271 301.23 98.4721 291.563 110.715C295.632 114.614 313.411 131.283 314.128 135.652C314.387 137.222 312.703 139.438 311.771 140.558C309.294 143.541 306.151 146.202 303.359 148.916C294.735 157.296 285.619 165.196 277.355 173.936L557.114 457.817C584.382 485.793 612.085 513.317 639.072 541.572C645.369 548.165 652.213 554.382 658.307 561.132C664.179 567.633 667.449 577.201 666.95 585.926C666.67 590.799 665.274 596.405 662.846 600.647C658.434 608.36 650.491 614.767 644.195 620.961C639.57 625.512 635.018 630.291 630.149 634.58C623.006 640.871 614.085 643.557 604.625 642.904C595.875 642.298 587.867 638.347 581.151 632.841C577.157 629.564 573.862 625.427 570.489 621.538C563.756 613.77 557.346 605.762 550.674 597.952L480.03 515.516C461.284 492.859 441.432 471.083 422.356 448.701L290.384 293.219C276.671 276.927 262.749 260.814 248.62 244.883C242.048 237.376 234.761 230.383 228.849 222.34C224.521 226.673 219.922 230.783 215.698 235.217C213.939 237.064 212.419 239.121 210.729 241.026C209.605 242.295 208.413 243.727 206.716 244.176C202.113 245.395 196.084 241.398 191.698 240.091C188.252 239.063 184.694 238.59 181.1 238.831C167.937 239.717 159.252 249.998 151.148 259.246C152.929 261.6 154.536 263.968 155.574 266.75C158.044 273.369 156.061 280.631 153.18 286.783C152.314 288.656 151.338 290.47 150.254 292.226C149.17 293.982 147.984 295.665 146.698 297.279C144.341 300.183 141.424 302.708 138.767 305.337C134.686 309.37 130.682 313.49 126.665 317.589C121.916 322.435 117.442 328.219 112.287 332.582C109.989 334.528 107.52 335.987 104.674 336.999C97.2568 339.637 89.4963 338.257 82.5554 334.894C79.2786 333.307 76.1076 331.238 73.4298 328.767C67.8709 323.637 62.8005 317.775 57.5312 312.328C43.9753 298.356 30.6471 284.172 17.547 269.773C13.6194 265.49 8.54468 262.137 4.85893 257.768C3.42797 256.071 2.43701 253.949 1.73251 251.854C-1.05466 243.559 -0.471127 233.013 3.42699 225.162C3.9563 224.108 4.54543 223.086 5.19436 222.099C5.84337 221.113 6.54764 220.168 7.30729 219.263C14.0329 211.219 22.2228 203.862 29.6923 196.49C34.3123 191.934 38.7539 186.767 43.8834 182.806C44.5159 182.321 45.1679 181.863 45.839 181.432C46.5098 181.002 47.1977 180.6 47.9024 180.228C48.6073 179.854 49.3264 179.513 50.0601 179.2C50.794 178.888 51.5394 178.606 52.2969 178.357C60.6973 175.579 67.5559 177.509 75.2178 181.305C82.3121 178.257 89.1686 175.299 95.6065 170.945C103.585 165.551 109.124 159.454 110.891 149.75C112.019 143.56 110.754 136.76 107.142 131.595C111.565 128.54 115.487 124.473 119.336 120.735L134.524 105.847L183.546 57.1533C192.761 47.9686 201.753 38.2547 211.607 29.7582C216.056 33.9528 220.298 38.3947 224.605 42.7349C227.556 41.1399 230.394 39.0158 233.208 37.1773C237.764 34.1828 242.418 31.3552 247.174 28.6904C278.686 11.1875 311.53 1.51007 347.575 0.16045Z" fill="#11100E"/>
<path d="M15.9634 221.786C21.2494 215.968 27.1578 210.717 32.7354 205.183C38.1788 199.782 43.3952 193.971 49.1228 188.88C53.4847 185.003 59.042 184.098 64.6965 184.455C68.7552 184.712 72.3122 185.454 75.0993 188.6C74.9127 188.721 74.7282 188.845 74.5401 188.964C72.6449 190.168 70.2346 190.941 68.1668 191.826C63.8094 193.693 59.6238 195.67 55.7283 198.4C48.7554 203.288 42.9858 209.051 36.5623 214.546C33.2745 217.358 29.5054 219.791 25.9875 222.315C24.1736 223.617 22.4157 225.162 20.5475 226.355L15.9634 221.786Z" fill="white"/>
<path d="M69.0298 281.229C73.165 284.718 76.8583 289.009 80.5601 292.96C87.2732 300.126 93.89 307.409 100.774 314.41C103.821 317.51 106.988 321.051 110.507 323.602C106.595 327.402 103.253 330.935 97.342 330.876C83.4182 330.73 67.5007 312.88 58.5325 303.335C57.2538 301.999 56.0192 300.624 54.8285 299.21C59.7381 293.257 63.6491 286.885 69.0298 281.229Z" fill="#292C48"/>
<path d="M12.4931 224.767C14.0871 225.983 15.4882 227.438 16.9255 228.832C34.4707 246.122 51.8389 263.586 69.0298 281.229C63.6491 286.885 59.7381 293.257 54.8285 299.209C44.461 287.095 33.5462 275.317 22.665 263.661C18.706 259.42 13.5401 255.646 10.2286 250.907C7.48273 246.977 7.06587 240.386 7.83143 235.756C8.38933 231.64 10.2748 228.203 12.4931 224.767Z" fill="#3E4F82"/>
<path d="M12.4931 224.767C14.0871 225.983 15.4882 227.438 16.9255 228.832C13.9882 233.781 9.99557 237.641 7.94452 243.167C7.92491 240.7 7.95375 238.22 7.83142 235.756C8.38932 231.64 10.2748 228.203 12.4931 224.767Z" fill="#9B92A1"/>
<path d="M271.307 179.492C278.644 186.437 285.592 193.72 292.534 201.051C283.937 209.21 275.612 217.684 267.23 226.061C263.309 229.982 257.466 234.817 254.57 239.385L234.155 216.758C246.451 204.249 258.835 191.826 271.307 179.492Z" fill="#B55C33"/>
<path d="M211.059 40.1354C218.037 46.3697 224.333 53.6067 230.937 60.2552C229.819 60.5945 229.555 60.3913 228.542 59.8526C223.942 57.4083 218.791 54.6534 214.526 51.6609C206.808 56.8274 200.512 63.75 193.873 70.1818C181.082 82.6888 168.406 95.309 155.843 108.044L137.085 126.636C133.426 130.24 129.49 133.733 126.211 137.686C126.526 149.206 128.784 163.689 120.047 172.876C113.473 179.791 95.9747 191.035 87.3265 195.233C84.9826 192.846 82.6672 190.431 80.3807 187.988C92.2934 183.675 109.601 173.478 115.697 161.834C120.465 152.724 119.258 142.91 116.37 133.461C121.689 129.429 126.335 124.427 131.074 119.74L151.546 99.563L182.99 68.5887C192.452 59.3503 202.366 50.1004 211.059 40.1354Z" fill="white"/>
<mask id="mask0_484_172" style="mask-type:luminance" maskUnits="userSpaceOnUse" x="230" y="7" width="175" height="69">
<path d="M295.918 16.837C301.349 14.7838 307.378 13.4323 313.052 12.215C316.042 11.544 319.045 10.9497 322.063 10.4302C325.082 9.91064 328.11 9.46778 331.151 9.10162C334.19 8.73546 337.239 8.44409 340.294 8.2313C343.349 8.0185 346.408 7.8824 349.47 7.82489C352.533 7.76546 355.593 7.78265 358.656 7.87851C361.716 7.97436 364.773 8.1469 367.826 8.39612C370.877 8.64534 373.922 8.97124 376.958 9.37383C379.993 9.77642 383.017 10.2557 386.03 10.8116C392.278 12.0002 398.437 13.9423 404.558 15.6638C351.219 11.6475 299.711 39.3397 260.473 73.2126C259.445 74.0983 258.448 75.0147 257.479 75.9636C251.216 69.1887 244.297 62.8105 238.291 55.84C235.666 53.158 233.07 50.4492 230.5 47.7135C232.611 46.3122 234.7 44.9395 236.939 43.749C238.287 42.1732 241.733 40.6491 243.601 39.566C249.901 35.8545 256.361 32.4517 262.987 29.3575C269.61 26.2633 276.366 23.4912 283.254 21.0412C287.402 19.5286 291.627 17.8838 295.918 16.837Z" fill="white"/>
</mask>
<g mask="url(#mask0_484_172)">
<path d="M295.918 16.837C301.349 14.7838 307.378 13.4323 313.052 12.215C316.042 11.544 319.045 10.9497 322.063 10.4302C325.082 9.91064 328.11 9.46778 331.151 9.10162C334.19 8.73546 337.239 8.44409 340.294 8.2313C343.349 8.0185 346.408 7.8824 349.47 7.82489C352.533 7.76546 355.593 7.78265 358.656 7.87851C361.716 7.97436 364.773 8.1469 367.826 8.39612C370.877 8.64534 373.922 8.97124 376.958 9.37383C379.993 9.77642 383.017 10.2557 386.03 10.8116C392.278 12.0002 398.437 13.9423 404.558 15.6638C351.219 11.6475 299.711 39.3397 260.473 73.2126C259.445 74.0983 258.448 75.0147 257.479 75.9636C251.216 69.1887 244.297 62.8105 238.291 55.84C235.666 53.158 233.07 50.4492 230.5 47.7135C232.611 46.3122 234.7 44.9395 236.939 43.749C238.287 42.1732 241.733 40.6491 243.601 39.566C249.901 35.8545 256.361 32.4517 262.987 29.3575C269.61 26.2633 276.366 23.4912 283.254 21.0412C287.402 19.5286 291.627 17.8838 295.918 16.837Z" fill="url(#paint0_linear_484_172)"/>
</g>
<path d="M230.5 47.7136C232.611 46.3122 234.7 44.9396 236.939 43.7491C236.903 43.8564 236.884 43.9715 236.834 44.075C236.562 44.6329 236.241 44.7881 235.766 45.1466C234.448 46.1435 233.984 47.1327 233.741 48.7622C233.601 49.6997 233.758 50.549 234.406 51.2736C235.639 52.652 237.271 53.4495 238.42 54.9678C239.57 54.3045 240.65 53.5837 241.735 52.8207L241.613 51.7874L242.165 52.8533C240.917 53.8981 239.588 54.8566 238.291 55.8401C235.666 53.1581 233.07 50.4493 230.5 47.7136Z" fill="white"/>
<path d="M295.918 16.8371C301.349 14.7839 307.378 13.4324 313.052 12.2151C316.042 11.5441 319.045 10.9498 322.063 10.4303C325.082 9.91074 328.11 9.46788 331.151 9.10172C334.19 8.73556 337.239 8.44419 340.294 8.23139C343.349 8.0186 346.408 7.8825 349.47 7.82499C352.533 7.76556 355.593 7.78275 358.656 7.87861C361.716 7.97446 364.773 8.147 367.826 8.39622C370.877 8.64544 373.922 8.97134 376.958 9.37393C379.993 9.77651 383.017 10.2558 386.03 10.8117C384.417 11.5345 376.102 9.86471 373.711 9.60974C365.11 8.69146 338.791 6.33345 332.605 11.0763L329.569 13.3768C325.952 13.3672 318.717 13.0241 315.595 14.3469C307.2 17.9069 305.34 17.1151 296.653 17.0135C296.375 17.0116 296.168 16.9234 295.918 16.8371Z" fill="white"/>
<path d="M114.408 228.845C120.569 234.652 126.301 240.974 132.248 247.004C136.756 251.574 144.444 258.213 147.708 263.427C149.034 265.546 149.633 268.68 149.683 271.132C149.873 280.568 143.761 289.434 137.378 295.82L123.508 309.556C120.147 312.941 116.783 316.871 112.92 319.684C108.301 316.124 104.223 311.446 100.075 307.324C90.6857 297.994 81.2697 288.549 72.3703 278.75C80.023 270.817 86.9185 261.876 93.9518 253.384C100.739 245.188 107.832 237.209 114.408 228.845Z" fill="#9B92A1"/>
<path d="M391.273 19.6705C400.437 19.3619 409.343 20.6597 418.398 21.7927C409.692 25.0038 401.292 28.9588 392.707 32.4632C360.188 45.7371 327.995 60.9472 302.78 86.0379C296.701 92.0882 291.209 98.7558 285.881 105.466L285.993 105.483L285.55 105.552C276.255 97.0899 267.576 87.2744 259.148 77.9402C271.725 69.0027 283.874 59.4193 296.823 51.0071C325.097 32.6377 357.449 20.9607 391.273 19.6705Z" fill="#292C48"/>
<path d="M75.0993 188.6L102.782 216.917C106.631 220.847 110.314 225.189 114.408 228.845C107.832 237.209 100.739 245.188 93.9518 253.384C86.9185 261.876 80.023 270.818 72.3703 278.75L44.6371 250.429C36.6336 242.362 28.4419 234.543 20.5475 226.355C22.4157 225.162 24.1736 223.617 25.9875 222.315C29.5054 219.791 33.2745 217.358 36.5623 214.546C42.9858 209.051 48.7554 203.288 55.7283 198.4C59.6238 195.67 63.8094 193.693 68.1668 191.826C70.2346 190.941 72.6449 190.168 74.5401 188.964C74.7282 188.845 74.9127 188.721 75.0993 188.6Z" fill="#D8D0CF"/>
<path d="M268.009 98.8555C274.466 104.977 280.642 111.391 286.978 117.637C293.115 123.684 299.416 129.489 305 136.07C270.699 168.794 236.341 201.398 204.251 236.316C194.161 231.489 181.65 229.299 170.883 233.172C160.065 237.062 152.52 245.704 145.231 254.162C138.143 247.073 130.862 240.091 124.072 232.716C132.575 230.085 138.728 227.923 146.382 223.205C174.288 205.997 248.948 140.778 263.804 113.462C266.237 108.987 265.742 105.011 266.854 100.316C267.38 99.8237 267.637 99.4575 268.009 98.8555Z" fill="#50747C"/>
<path d="M658.24 585.044C658.175 588.577 657.37 592.603 655.68 595.722C651.885 602.725 644.646 608.362 639.018 613.917C635.349 617.539 631.796 621.294 628.068 624.85C621.728 630.901 615.12 634.629 606.165 634.328C596.531 634.002 588.737 629.07 582.317 622.168C578.787 618.373 575.607 614.211 572.276 610.24L555.196 590.247C546.668 580.288 537.596 570.773 529.373 560.557C520.192 549.279 510.444 538.511 501.017 527.445L422.774 436.428C367.095 370.416 311.027 304.735 254.572 239.387C257.466 234.819 263.309 229.982 267.23 226.061C275.614 217.684 283.937 209.21 292.535 201.051L593.672 506.793L629.504 544.237L642.071 557.087C646.591 561.652 651.603 565.994 654.932 571.55C657.249 575.418 658.321 580.558 658.24 585.044Z" fill="#C3763F"/>
<path d="M547.524 548.562C543.888 544.456 504.647 500.173 504.271 499.18C504.172 498.919 504.285 498.622 504.29 498.342C504.737 497.533 504.952 497.112 505.79 496.686C507.938 498.316 515.587 507.774 517.927 510.422C528.744 522.668 539.565 534.968 550.561 547.053C560.709 558.468 570.917 569.83 581.184 581.141C585.995 586.371 590.715 591.685 595.336 597.083C596.703 598.663 598.437 600.143 599.643 601.817C600.132 602.495 600.358 603.034 600.36 603.885C599.867 604.673 599.9 604.696 599.024 604.978C598.055 604.669 597.463 604.271 596.749 603.54C595.265 602.02 594.017 600.224 592.609 598.623L583.174 588.092C571.377 574.861 559.612 561.526 547.524 548.562Z" fill="#11100E"/>
<path d="M214.526 51.6608C218.791 54.6534 223.942 57.4082 228.542 59.8525C229.555 60.3912 229.819 60.5944 230.937 60.2551L231.656 60.8264C238.228 67.1969 244.903 73.8587 250.804 80.8522C256.549 86.8392 262.139 92.9911 268.009 98.8555C267.637 99.4575 267.38 99.8236 266.854 100.316C265.742 105.011 266.237 108.987 263.804 113.462C248.948 140.778 174.288 205.997 146.382 223.205C138.728 227.923 132.575 230.085 124.072 232.716C111.669 220.46 98.9982 208.181 87.3265 195.233C95.9747 191.034 113.473 179.791 120.047 172.876C128.784 163.689 126.526 149.206 126.211 137.686C129.49 133.733 133.426 130.24 137.085 126.636L155.843 108.044C168.406 95.3089 181.082 82.6888 193.873 70.1817C200.512 63.7499 206.808 56.8273 214.526 51.6608Z" fill="#79A0BD"/>
<path d="M310.467 267.969C313.764 269.562 332.522 290.611 336.944 295.264L457.147 422.716C463.115 428.938 515.898 483.376 516.498 485.354C516.65 485.851 516.094 486.527 515.85 486.972C515.056 486.819 514.554 486.644 513.904 486.146C509.597 482.835 504.964 477.586 501.002 473.693C489.726 462.612 478.79 451.307 467.865 439.885L372.562 338.755C353.708 318.58 334.422 298.721 316.546 277.658C315.192 276.061 310.669 271.454 309.955 270.03C309.721 269.564 309.729 269.445 309.654 268.987L310.467 267.969Z" fill="#11100E"/>
<defs>
<linearGradient id="paint0_linear_484_172" x1="324.355" y1="52.4468" x2="311.115" y2="12.1686" gradientUnits="userSpaceOnUse">
<stop stop-color="#BA9B95"/>
<stop offset="1" stop-color="#E7E4E5"/>
</linearGradient>
</defs>
</svg>
